<svg width="49" height="48" viewBox="0 0 49 48" fill="none" xmlns="http://www.w3.org/2000/svg">
<g id="ten-years-icon 1" clip-path="url(#clip0_58_1128)">
<path id="Vector" d="M9.99316 33.3028L10.6494 35.9317H10.7314L11.4033 33.3028H14.0439L11.8916 38.7403V40.7715H9.50098V38.7403L7.35254 33.3028H9.99316ZM19.583 37.9512H17.208V38.8575H20.1377V40.7715H14.8174V33.3028H20.0752L19.7783 35.2129H17.208V36.2169H19.583V37.9512ZM23.0986 40.7715H20.5908L22.5439 33.3028H26.2236L28.1768 40.7715H25.6338L25.3564 39.5997H23.4033L23.126 40.7715H23.0986ZM24.2939 35.5958L23.8057 37.6856H24.9033L24.4268 35.5958H24.2939ZM35.29 40.7715H32.6729L31.6924 38.5489H31.1807V40.7715H28.79V33.3028H32.5518C34.2653 33.3028 35.1221 34.1752 35.1221 35.92C35.1221 37.1153 34.7314 37.9004 34.0088 38.2637L35.3018 40.752L35.29 40.7715ZM31.1807 35.2129V36.7051H31.7275C31.9407 36.7172 32.1543 36.688 32.3564 36.6192C32.4261 36.577 32.4818 36.5153 32.5165 36.4416C32.5513 36.368 32.5635 36.2857 32.5518 36.2051V35.7129C32.5632 35.6329 32.5508 35.5513 32.5161 35.4784C32.4813 35.4054 32.4258 35.3443 32.3564 35.3028C32.1546 35.2322 31.941 35.2017 31.7275 35.2129H31.1807ZM36.0166 40.6465L36.3525 38.6934C36.9977 38.8657 37.6614 38.9588 38.3291 38.9708C38.8029 38.9777 39.2766 38.9529 39.7471 38.8965V38.2715L38.6689 38.1778C37.7002 38.0879 37.0322 37.8575 36.6689 37.4786C36.276 37.0108 36.0811 36.4081 36.126 35.7989C36.126 34.7793 36.3447 34.0801 36.79 33.6934C37.2354 33.3067 37.9619 33.1231 39.04 33.1231C40.0053 33.1123 40.9685 33.212 41.9111 33.42L41.6104 35.334C41.0221 35.2284 40.4266 35.1683 39.8291 35.1544C39.4507 35.1507 39.0723 35.1702 38.6963 35.2129V35.7989L39.5557 35.8809C40.5973 35.9851 41.3187 36.2351 41.7197 36.6309C41.9252 36.8495 42.0838 37.1078 42.1859 37.3899C42.288 37.6721 42.3314 37.9721 42.3135 38.2715C42.3249 38.7046 42.2574 39.1361 42.1143 39.545C42.0101 39.8368 41.8449 40.1031 41.6299 40.3262C41.4049 40.5178 41.1368 40.6518 40.8486 40.7169C40.5545 40.8054 40.2522 40.8643 39.9463 40.8926C39.6885 40.8926 39.3447 40.92 38.915 40.92C37.9454 40.928 36.9782 40.8244 36.0322 40.6114L36.0166 40.6465Z" fill="white"/>
<path id="Vector_2" d="M33.1299 2.05664C33.1299 1.14258 34.0361 0.412109 35.1455 0.412109C36.2549 0.412109 37.1611 1.1582 37.1611 2.05664V9.2832C37.1611 10.1973 36.2627 10.9277 35.1455 10.9277C34.0283 10.9277 33.1299 10.1855 33.1299 9.2832V2.05664ZM23.8799 28.3691H13.7939V24.8535H17.3838V19.0332L13.7939 19.2988V15.7832L18.4346 14.6426H21.6221V24.8574H23.8799V28.373V28.3691ZM26.0986 26.8652C25.7051 26.1837 25.4403 25.4356 25.3174 24.6582C25.1482 23.6161 25.0685 22.5615 25.0791 21.5059C25.0633 20.4507 25.1378 19.396 25.3018 18.3535C25.4253 17.5763 25.69 16.8283 26.083 16.1465C26.4645 15.5102 27.0473 15.0195 27.7393 14.752C28.6145 14.433 29.5426 14.2845 30.4736 14.3145C31.4048 14.2829 32.3332 14.4314 33.208 14.752C33.8962 15.024 34.4765 15.5138 34.8604 16.1465C35.2582 16.826 35.5234 17.575 35.6416 18.3535C35.7972 19.4008 35.8677 20.4589 35.8525 21.5176C35.8681 22.5723 35.7975 23.6266 35.6416 24.6699C35.522 25.4444 35.2569 26.1893 34.8604 26.8652C34.4765 27.4979 33.8962 27.9877 33.208 28.2598C32.3332 28.5803 31.4048 28.7289 30.4736 28.6973C29.5426 28.7272 28.6145 28.5787 27.7393 28.2598C27.0473 27.9923 26.4645 27.5015 26.083 26.8652H26.0986ZM29.2236 19.0137V25.1621H30.0713C30.5061 25.1931 30.9421 25.1222 31.3447 24.9551C31.5869 24.8145 31.708 24.498 31.708 23.998V17.8496H30.7705C30.357 17.8167 29.9417 17.8836 29.5596 18.0449C29.3447 18.1777 29.2354 18.502 29.2354 19.0137H29.2236ZM12.4268 2.05664C12.4229 1.14258 13.333 0.412109 14.4385 0.412109C15.5439 0.412109 16.458 1.1582 16.458 2.05664V9.2832C16.458 10.1973 15.5557 10.9277 14.4424 10.9277C13.3291 10.9277 12.4268 10.1855 12.4268 9.2832V2.05664ZM3.47363 43.8887C3.47277 44.1617 3.57942 44.4241 3.77051 44.6191C3.86612 44.7148 3.98015 44.7902 4.10571 44.8405C4.23127 44.8909 4.36573 44.9152 4.50098 44.9121H45.126C45.3972 44.9134 45.6581 44.8082 45.8525 44.6191C45.9482 44.5235 46.0236 44.4095 46.0739 44.2839C46.1243 44.1584 46.1486 44.0239 46.1455 43.8887V8.3418C46.1465 8.20949 46.1213 8.07829 46.0713 7.95581C46.0212 7.83332 45.9474 7.72198 45.854 7.62824C45.7606 7.5345 45.6496 7.46023 45.5273 7.40972C45.405 7.3592 45.2739 7.33346 45.1416 7.33398H41.8877C41.2666 7.33398 40.7705 6.41602 40.7705 5.79492C40.77 5.64807 40.7985 5.50256 40.8545 5.36678C40.9105 5.23101 40.9927 5.10764 41.0966 5.0038C41.2004 4.89996 41.3238 4.81768 41.4596 4.76172C41.5953 4.70576 41.7408 4.67722 41.8877 4.67773H45.5635C46.4256 4.68387 47.2507 5.02907 47.8603 5.63871C48.4699 6.24834 48.8152 7.07342 48.8213 7.93555V44.3457C48.8152 45.2078 48.4699 46.0329 47.8603 46.6425C47.2507 47.2522 46.4256 47.5974 45.5635 47.6035H4.09082C3.226 47.5973 2.39858 47.25 1.78851 46.637C1.17844 46.024 0.835045 45.1949 0.833008 44.3301L0.833008 7.91992C0.833712 7.4926 0.918984 7.06965 1.08391 6.67544C1.24883 6.28123 1.49015 5.92356 1.79395 5.62305C2.40239 5.01163 3.22825 4.66611 4.09082 4.66211H8.03223C8.17908 4.66159 8.32459 4.69014 8.46037 4.7461C8.59614 4.80206 8.71951 4.88433 8.82335 4.98817C8.92719 5.09202 9.00946 5.21538 9.06542 5.35116C9.12139 5.48693 9.14993 5.63244 9.14941 5.7793C9.14941 6.40039 8.65332 7.31836 8.03223 7.31836H4.5166C4.24435 7.3177 3.98248 7.42273 3.78613 7.61133C3.69027 7.70701 3.6146 7.82097 3.5636 7.94645C3.51261 8.07193 3.48733 8.20637 3.48926 8.3418C3.48926 19.5957 3.48926 32.584 3.48926 43.8887H3.47363ZM20.9697 7.30273C20.3486 7.30273 19.8525 6.38477 19.8525 5.76367C19.852 5.61682 19.8806 5.47131 19.9365 5.33553C19.9925 5.19976 20.0748 5.07639 20.1786 4.97255C20.2824 4.86871 20.4058 4.78643 20.5416 4.73047C20.6774 4.67451 20.8229 4.64597 20.9697 4.64648H28.4736C28.6205 4.64597 28.766 4.67451 28.9018 4.73047C29.0375 4.78643 29.1609 4.86871 29.2648 4.97255C29.3686 5.07639 29.4509 5.19976 29.5068 5.33553C29.5628 5.47131 29.5913 5.61682 29.5908 5.76367C29.5908 6.38477 29.0947 7.30273 28.4736 7.30273H20.9697Z" fill="white"/>
</g>
<defs>
<clipPath id="clip0_58_1128">
<rect width="48" height="47.1758" fill="white" transform="translate(0.833008 0.412109)"/>
</clipPath>
</defs>
</svg>
