<svg width="30" height="30" viewBox="0 0 30 30" fill="none" xmlns="http://www.w3.org/2000/svg">
<g id="Frame 14">
<g id="Group 2">
<path id="Vector" d="M27.6087 8.73645C27.3865 8.63451 27.1499 8.58255 26.9112 8.58332H26.8862C25.6255 8.6052 24.2118 9.98259 23.4699 12.0658C22.5805 14.5581 22.9899 17.108 24.3912 17.7635C24.6131 17.8655 24.8495 17.9174 25.088 17.9167C26.3549 17.9167 27.788 16.5312 28.5362 14.4342C29.4193 11.9419 29.0037 9.39197 27.6087 8.73645Z" stroke="white" stroke-width="1.25" stroke-miterlimit="10"/>
<path id="Vector_2" d="M19.475 18.4621C17.7375 15.0984 16.9875 13.8333 14.9999 13.8333C13.0124 13.8333 12.2562 15.1064 10.5187 18.4621C9.03118 21.3321 6.02493 21.5712 5.27492 24.0088C5.12277 24.4553 5.04636 24.932 5.04992 25.4125C5.04992 27.3951 6.34993 29 7.94993 29C9.93744 29 12.6437 27.1486 15.0062 27.1486C17.3687 27.1486 20.0625 29 22.05 29C23.65 29 24.9437 27.3958 24.9437 25.4125C24.9452 24.9316 24.8666 24.4549 24.7125 24.0088C23.9625 21.5625 20.9625 21.3321 19.475 18.4621Z" stroke="white" stroke-width="1.25" stroke-miterlimit="10"/>
<path id="Vector_3" d="M11.0317 10.625C11.1154 10.6251 11.199 10.6178 11.2817 10.6031C12.7323 10.3574 13.638 8.0124 13.3092 5.36406C12.9998 2.8674 11.7011 1 10.3429 1C10.2593 0.999922 10.1757 1.00723 10.0929 1.02188C8.64232 1.26761 7.73669 3.6126 8.06544 6.26094C8.37482 8.75031 9.67357 10.625 11.0317 10.625Z" stroke="white" stroke-width="1.25" stroke-miterlimit="10"/>
<path id="Vector_4" d="M21.9323 6.26094C22.2611 3.6126 21.3555 1.26761 19.9048 1.02188C19.8221 1.00723 19.7385 0.999922 19.6548 1C18.2967 1 17.0004 2.8674 16.6904 5.36406C16.3617 8.0124 17.2673 10.3574 18.7179 10.6031C18.8007 10.6178 18.8843 10.6251 18.9679 10.625C20.3261 10.625 21.6248 8.75031 21.9323 6.26094Z" stroke="white" stroke-width="1.25" stroke-miterlimit="10"/>
<path id="Vector_5" d="M5.61052 17.7635C7.0099 17.1073 7.41865 14.5552 6.53052 12.0658C5.78302 9.96874 4.35114 8.58332 3.08614 8.58332C2.84764 8.58256 2.61118 8.63452 2.38926 8.73645C0.989886 9.3927 0.581135 11.9448 1.46926 14.4342C2.21676 16.5312 3.64864 17.9167 4.91365 17.9167C5.15214 17.9174 5.3886 17.8655 5.61052 17.7635Z" stroke="white" stroke-width="1.25" stroke-miterlimit="10"/>
</g>
</g>
</svg>
