<svg width="32" height="16" viewBox="0 0 32 16" fill="none" xmlns="http://www.w3.org/2000/svg">
<path id="Vector" d="M22.6798 0.324461C22.577 0.426431 22.4953 0.547749 22.4397 0.681417C22.384 0.815084 22.3553 0.958454 22.3553 1.10326C22.3553 1.24806 22.384 1.39143 22.4397 1.5251C22.4953 1.65877 22.577 1.78008 22.6798 1.88206L27.7255 6.92779H1.90452C1.6136 6.92779 1.3346 7.04335 1.12889 7.24906C0.923183 7.45477 0.807617 7.73377 0.807617 8.02468C0.807617 8.3156 0.923183 8.5946 1.12889 8.80031C1.3346 9.00601 1.6136 9.12158 1.90452 9.12158H27.7036L22.6798 14.1344C22.4755 14.3399 22.3608 14.6179 22.3608 14.9077C22.3608 15.1975 22.4755 15.4755 22.6798 15.681C22.8853 15.8853 23.1633 16 23.4531 16C23.7429 16 24.0209 15.8853 24.2264 15.681L31.2027 8.70476C31.2966 8.61467 31.3713 8.50653 31.4223 8.38683C31.4733 8.26713 31.4997 8.13835 31.4997 8.00823C31.4997 7.8781 31.4733 7.74933 31.4223 7.62963C31.3713 7.50993 31.2966 7.40179 31.2027 7.3117L24.2374 0.324461C24.1354 0.22165 24.0141 0.140047 23.8804 0.0843593C23.7467 0.0286712 23.6034 0 23.4586 0C23.3138 0 23.1704 0.0286712 23.0367 0.0843593C22.9031 0.140047 22.7817 0.22165 22.6798 0.324461Z" fill="#1A1A1A"/>
</svg>
