<svg width="35" height="36" viewBox="0 0 35 36" fill="none" xmlns="http://www.w3.org/2000/svg">
<g id="Group 4">
<path id="Vector" d="M29.5429 35.25H5.45293C4.0747 35.2471 2.75374 34.6983 1.77918 33.7237C0.804625 32.7492 0.255836 31.4282 0.25293 30.05V9.05999C0.255576 7.68081 0.804968 6.35895 1.78066 5.38419C2.75636 4.40943 4.07875 3.86131 5.45793 3.85999H29.5479C30.9271 3.86263 32.249 4.41202 33.2237 5.38772C34.1985 6.36342 34.7466 7.6858 34.7479 9.06499V30.045C34.7463 31.4249 34.1974 32.7479 33.2217 33.7237C32.2459 34.6995 30.9229 35.2484 29.5429 35.25ZM5.45293 6.35499C4.73576 6.35578 4.0482 6.64102 3.54108 7.14814C3.03397 7.65525 2.74872 8.34282 2.74793 9.05999V30.045C2.75031 30.7612 3.03622 31.4473 3.54314 31.9533C4.05005 32.4593 4.73671 32.7439 5.45293 32.745H29.5429C30.2584 32.7429 30.9439 32.4577 31.4498 31.9518C31.9557 31.4459 32.2408 30.7604 32.2429 30.045V9.05999C32.2411 8.34447 31.956 7.65879 31.4501 7.15284C30.9441 6.64689 30.2584 6.36183 29.5429 6.35999L5.45293 6.35499Z" fill="white"/>
<path id="Vector_2" d="M33.4981 17.8311H1.53906C1.20754 17.8311 0.8896 17.6994 0.655179 17.4649C0.420759 17.2305 0.289063 16.9126 0.289062 16.5811C0.289063 16.2495 0.420759 15.9316 0.655179 15.6972C0.8896 15.4628 1.20754 15.3311 1.53906 15.3311H33.4981C33.8296 15.3311 34.1475 15.4628 34.3819 15.6972C34.6164 15.9316 34.7481 16.2495 34.7481 16.5811C34.7481 16.9126 34.6164 17.2305 34.3819 17.4649C34.1475 17.6994 33.8296 17.8311 33.4981 17.8311Z" fill="white"/>
<path id="Vector_3" d="M9.45703 9.655C9.29284 9.65513 9.13024 9.62289 8.97852 9.56012C8.82681 9.49735 8.68895 9.40528 8.57286 9.28918C8.45676 9.17308 8.36469 9.03523 8.30191 8.88351C8.23914 8.73179 8.2069 8.56919 8.20703 8.405V2C8.20703 1.66848 8.33873 1.35054 8.57315 1.11612C8.80757 0.881696 9.12551 0.75 9.45703 0.75C9.78855 0.75 10.1065 0.881696 10.3409 1.11612C10.5753 1.35054 10.707 1.66848 10.707 2V8.405C10.707 8.73652 10.5753 9.05446 10.3409 9.28888C10.1065 9.5233 9.78855 9.655 9.45703 9.655Z" fill="white"/>
<path id="Vector_4" d="M25.54 9.655C25.3759 9.65513 25.2132 9.62289 25.0615 9.56012C24.9098 9.49735 24.772 9.40528 24.6559 9.28918C24.5398 9.17308 24.4477 9.03523 24.3849 8.88351C24.3222 8.73179 24.2899 8.56919 24.29 8.405V2C24.29 1.66848 24.4217 1.35054 24.6562 1.11612C24.8906 0.881696 25.2085 0.75 25.54 0.75C25.8716 0.75 26.1895 0.881696 26.4239 1.11612C26.6583 1.35054 26.79 1.66848 26.79 2V8.405C26.79 8.73652 26.6583 9.05446 26.4239 9.28888C26.1895 9.5233 25.8716 9.655 25.54 9.655Z" fill="white"/>
</g>
</svg>
