<svg width="20" height="21" viewBox="0 0 20 21" fill="none" xmlns="http://www.w3.org/2000/svg">
<g id="ic:outline-info">
<path id="Vector" d="M9.16699 6.33341H10.8337V8.00008H9.16699V6.33341ZM9.16699 9.66675H10.8337V14.6667H9.16699V9.66675ZM10.0003 2.16675C5.40033 2.16675 1.66699 5.90008 1.66699 10.5001C1.66699 15.1001 5.40033 18.8334 10.0003 18.8334C14.6003 18.8334 18.3337 15.1001 18.3337 10.5001C18.3337 5.90008 14.6003 2.16675 10.0003 2.16675ZM10.0003 17.1667C6.32533 17.1667 3.33366 14.1751 3.33366 10.5001C3.33366 6.82508 6.32533 3.83341 10.0003 3.83341C13.6753 3.83341 16.667 6.82508 16.667 10.5001C16.667 14.1751 13.6753 17.1667 10.0003 17.1667Z" fill="white"/>
</g>
</svg>
