<svg width="49" height="48" viewBox="0 0 49 48" fill="none" xmlns="http://www.w3.org/2000/svg">
<g id="fluent:list-24-filled">
<path id="Vector" d="M6.49974 34H30.4997C31.0095 34.0006 31.4998 34.1958 31.8705 34.5457C32.2411 34.8956 32.4642 35.3739 32.4941 35.8828C32.524 36.3917 32.3584 36.8928 32.0312 37.2837C31.704 37.6746 31.2399 37.9258 30.7337 37.986L30.4997 38H6.49974C5.98998 37.9994 5.49967 37.8042 5.129 37.4543C4.75833 37.1044 4.53527 36.6261 4.50539 36.1172C4.47552 35.6083 4.64109 35.1072 4.96827 34.7163C5.29545 34.3254 5.75955 34.0742 6.26574 34.014L6.49974 34ZM6.49974 22H42.4997C43.0095 22.0006 43.4998 22.1958 43.8705 22.5457C44.2411 22.8956 44.4642 23.3739 44.4941 23.8828C44.524 24.3917 44.3584 24.8928 44.0312 25.2837C43.704 25.6746 43.2399 25.9258 42.7337 25.986L42.4997 26H6.49974C5.98998 25.9994 5.49967 25.8042 5.129 25.4543C4.75833 25.1044 4.53527 24.6261 4.50539 24.1172C4.47552 23.6083 4.64109 23.1072 4.96827 22.7163C5.29545 22.3254 5.75955 22.0742 6.26574 22.014L6.49974 22ZM6.49974 10H36.4997C37.0095 10.0006 37.4998 10.1958 37.8705 10.5457C38.2411 10.8956 38.4642 11.3739 38.4941 11.8828C38.524 12.3917 38.3584 12.8928 38.0312 13.2837C37.704 13.6746 37.2399 13.9258 36.7337 13.986L36.4997 14H6.49974C5.98998 13.9994 5.49967 13.8042 5.129 13.4543C4.75833 13.1044 4.53527 12.6261 4.50539 12.1172C4.47552 11.6083 4.64109 11.1072 4.96827 10.7163C5.29545 10.3254 5.75955 10.0742 6.26574 10.014L6.49974 10Z" fill="white"/>
</g>
</svg>
