<svg width="49" height="48" viewBox="0 0 49 48" fill="none" xmlns="http://www.w3.org/2000/svg">
<g id="group_FILL1_wght400_GRAD0_opsz48 1">
<path id="Vector" d="M2.40039 40V35.3C2.40039 34.1333 2.70039 33.075 3.30039 32.125C3.90039 31.175 4.73372 30.4666 5.80039 30C8.23372 28.9333 10.4254 28.1666 12.3754 27.7C14.3254 27.2333 16.3337 27 18.4004 27C20.4671 27 22.4671 27.2333 24.4004 27.7C26.3337 28.1666 28.5171 28.9333 30.9504 30C32.0171 30.4666 32.8587 31.175 33.4754 32.125C34.0921 33.075 34.4004 34.1333 34.4004 35.3V40H2.40039ZM37.4004 40V35.3C37.4004 33.2 36.8671 31.475 35.8004 30.125C34.7337 28.775 33.3337 27.6833 31.6004 26.85C33.9004 27.1166 36.0671 27.5083 38.1004 28.025C40.1337 28.5416 41.7837 29.1333 43.0504 29.8C44.1504 30.4333 45.0171 31.2166 45.6504 32.15C46.2837 33.0833 46.6004 34.1333 46.6004 35.3V40H37.4004ZM18.4004 23.95C16.2004 23.95 14.4004 23.25 13.0004 21.85C11.6004 20.45 10.9004 18.65 10.9004 16.45C10.9004 14.25 11.6004 12.45 13.0004 11.05C14.4004 9.64995 16.2004 8.94995 18.4004 8.94995C20.6004 8.94995 22.4004 9.64995 23.8004 11.05C25.2004 12.45 25.9004 14.25 25.9004 16.45C25.9004 18.65 25.2004 20.45 23.8004 21.85C22.4004 23.25 20.6004 23.95 18.4004 23.95ZM36.4004 16.45C36.4004 18.65 35.7004 20.45 34.3004 21.85C32.9004 23.25 31.1004 23.95 28.9004 23.95C28.5337 23.95 28.1254 23.925 27.6754 23.875C27.2254 23.825 26.8171 23.7333 26.4504 23.6C27.2504 22.7666 27.8587 21.7416 28.2754 20.525C28.6921 19.3083 28.9004 17.95 28.9004 16.45C28.9004 14.95 28.6921 13.625 28.2754 12.475C27.8587 11.325 27.2504 10.2666 26.4504 9.29995C26.8171 9.19995 27.2254 9.11662 27.6754 9.04995C28.1254 8.98328 28.5337 8.94995 28.9004 8.94995C31.1004 8.94995 32.9004 9.64995 34.3004 11.05C35.7004 12.45 36.4004 14.25 36.4004 16.45Z" fill="white"/>
</g>
</svg>
