<svg width="28" height="28" viewBox="0 0 28 28" fill="none" xmlns="http://www.w3.org/2000/svg">
<g id="gis:map-route" clip-path="url(#clip0_56_2436)">
<path id="Vector" fill-rule="evenodd" clip-rule="evenodd" d="M23.2728 0C21.3464 0 19.7173 1.3258 19.2466 3.10576L18.7284 2.86496C18.6359 2.82198 18.5352 2.79971 18.4332 2.79971C18.3313 2.79971 18.2306 2.82198 18.1381 2.86496L9.56648 6.84684L0.99484 2.86524C0.888182 2.81571 0.770765 2.79384 0.653428 2.80167C0.53609 2.80949 0.422615 2.84675 0.323478 2.91001C0.224341 2.97326 0.142738 3.06047 0.086202 3.16359C0.0296661 3.2667 1.97491e-05 3.3824 1.88791e-08 3.5V23.1804C-3.09716e-05 23.3138 0.0380924 23.4445 0.109877 23.557C0.181661 23.6695 0.284114 23.7592 0.40516 23.8154L9.27164 27.9339C9.36409 27.9769 9.46481 27.9992 9.56676 27.9992C9.66871 27.9992 9.76943 27.9769 9.86188 27.9339L18.4335 23.9523L27.0052 27.9339C27.4691 28.1492 28 27.8107 28 27.2994V7.61908C28 7.48562 27.9619 7.35493 27.8901 7.24241C27.8183 7.1299 27.7159 7.04025 27.5948 6.98404L26.6904 6.56348L26.9735 6.08132C27.0379 5.96456 27.0892 5.84024 27.1331 5.71312C27.3359 5.21894 27.4401 4.68991 27.44 4.15576C27.44 1.8718 25.5634 0 23.2728 0ZM23.2728 1.94684C24.5062 1.94684 25.487 2.92572 25.487 4.15576C25.487 5.38552 24.5062 6.36356 23.2728 6.36356C22.0394 6.36356 21.0585 5.38552 21.0585 4.15576C21.0585 2.92572 22.0394 1.94684 23.2728 1.94684ZM18.7463 4.417L19.1318 4.59648C19.2071 5.29614 19.4601 5.9649 19.8668 6.53912L22.7643 11.5483C23.1703 12.0786 23.4402 11.9778 23.7776 11.5203L25.9776 7.77588L26.6 8.0654V26.2024L18.8502 22.6024L18.7869 11.4932C18.9011 11.5178 19.0151 11.5416 19.1296 11.5688L19.3872 10.4793C19.1856 10.4316 18.9833 10.3875 18.7802 10.3468L18.7466 4.417H18.7463ZM17.9068 4.51612L17.939 10.2102C17.6499 10.1705 17.359 10.1443 17.0674 10.1315L17.026 11.2504C17.3306 11.2616 17.6378 11.2946 17.9458 11.3394L18.0102 22.605L9.98088 26.3354L9.87756 8.24628L17.9068 4.51612ZM1.4 4.59704L9.037 8.14464L9.14088 26.3298L1.4 22.7335V4.59704ZM15.832 10.208C15.4465 10.2771 15.052 10.4006 14.6846 10.6142C14.2452 10.8687 13.8838 11.2386 13.6396 11.6838L14.6202 12.2248C14.7663 11.9588 14.9817 11.7373 15.2435 11.5839L15.2452 11.5828L15.2468 11.5816C15.4728 11.45 15.7419 11.3616 16.03 11.31L15.832 10.208ZM20.4985 10.7766L20.1813 11.8502C20.8821 12.0574 21.5762 12.2954 22.2664 12.553L22.6582 11.5035C21.9492 11.2392 21.2302 10.9928 20.4985 10.7766ZM13.218 12.9035L13.2096 12.9478L13.2087 12.9517C13.069 13.7444 13.0838 14.5244 13.1152 15.2659L14.2341 15.2183C14.2036 14.499 14.1971 13.8029 14.3116 13.1496L14.3184 13.1146L13.218 12.9035ZM14.3007 16.3223L13.1835 16.3979C13.2339 17.1452 13.2877 17.8777 13.2857 18.5959L14.4057 18.5987C14.408 17.8231 14.3511 17.0649 14.3007 16.3223ZM13.23 19.6515C13.1992 19.9184 13.1533 20.1779 13.0861 20.4271L13.0855 20.4285L13.085 20.4308C12.987 20.8046 12.822 21.1506 12.5919 21.4217L13.445 22.1469C13.8057 21.7227 14.0344 21.2234 14.1674 20.7183L14.168 20.7166C14.252 20.4042 14.3066 20.0894 14.3424 19.7786L13.23 19.6515ZM3.77496 20.743L3.27208 21.7437C3.96648 22.0928 4.68468 22.3815 5.40792 22.6313L5.77332 21.5726C5.08592 21.3354 4.41476 21.0644 3.77496 20.743ZM6.80904 21.8946L6.51112 22.9743C7.252 23.179 8.0136 23.3416 8.792 23.4293L8.91688 22.3163C8.211 22.237 7.50708 22.0875 6.80904 21.8946ZM11.8885 21.9736C11.3308 22.2592 10.6574 22.3647 9.96492 22.3731L9.97892 23.4931C10.7724 23.4836 11.6208 23.3688 12.3987 22.9704L11.8885 21.9736Z" fill="white"/>
</g>
<defs>
<clipPath id="clip0_56_2436">
<rect width="28" height="28" fill="white"/>
</clipPath>
</defs>
</svg>
