<svg width="15" height="15" viewBox="0 0 15 15" fill="none" xmlns="http://www.w3.org/2000/svg">
<g id="tabler:search">
<path id="Vector" d="M13.125 13.125L9.375 9.375M1.875 6.25C1.875 6.82453 1.98816 7.39344 2.20803 7.92424C2.42789 8.45504 2.75015 8.93734 3.15641 9.34359C3.56266 9.74985 4.04496 10.0721 4.57576 10.292C5.10656 10.5118 5.67547 10.625 6.25 10.625C6.82453 10.625 7.39344 10.5118 7.92424 10.292C8.45504 10.0721 8.93734 9.74985 9.34359 9.34359C9.74985 8.93734 10.0721 8.45504 10.292 7.92424C10.5118 7.39344 10.625 6.82453 10.625 6.25C10.625 5.67547 10.5118 5.10656 10.292 4.57576C10.0721 4.04496 9.74985 3.56266 9.34359 3.15641C8.93734 2.75015 8.45504 2.42789 7.92424 2.20803C7.39344 1.98816 6.82453 1.875 6.25 1.875C5.67547 1.875 5.10656 1.98816 4.57576 2.20803C4.04496 2.42789 3.56266 2.75015 3.15641 3.15641C2.75015 3.56266 2.42789 4.04496 2.20803 4.57576C1.98816 5.10656 1.875 5.67547 1.875 6.25Z" stroke="#848484" stroke-width="1.25" stroke-linecap="round" stroke-linejoin="round"/>
</g>
</svg>
