<svg width="30" height="30" viewBox="0 0 30 30" fill="none" xmlns="http://www.w3.org/2000/svg">
<g id="Frame 13">
<g id="Group 1">
<g id="Group">
<path id="Vector" d="M26.2903 8.67742C25.6111 9.35664 25.0687 9.58064 24.0323 9.58064C21.9594 9.58064 20.4194 8.04065 20.4194 5.96774C20.4194 4.93129 20.6434 4.3889 21.3226 3.70968L18.6129 1L1 18.6129L3.70968 21.3226C4.3889 20.6434 4.93129 20.4194 5.96774 20.4194C8.04065 20.4194 9.58064 21.9594 9.58064 24.0323C9.58064 25.0687 9.35664 25.6111 8.67742 26.2903L11.3871 29L29 11.3871L26.2903 8.67742Z" stroke="white" stroke-width="1.25" stroke-miterlimit="10"/>
<path id="Vector_2" d="M12.29 7.32263L14.0965 9.12908" stroke="white" stroke-width="1.25" stroke-miterlimit="10"/>
<path id="Vector_3" d="M20.8711 15.9031L22.6775 17.7095" stroke="white" stroke-width="1.25" stroke-miterlimit="10"/>
</g>
<path id="Vector_4" d="M15 10.0321L16.8065 11.8386" stroke="white" stroke-width="1.25" stroke-miterlimit="10"/>
<path id="Vector_5" d="M18.1611 13.1936L19.9676 15.0001" stroke="white" stroke-width="1.25" stroke-miterlimit="10"/>
</g>
</g>
</svg>
